<?xml version="1.0" encoding="UTF-8" standalone="no"?>
<svg
   id="svg"
   version="1.1"
   width="353mm"
   height="250mm"
   viewBox="0 0 1334.1732 944.88187"
   sodipodi:docname="mtcc logo.svg"
   inkscape:version="1.1 (c68e22c387, 2021-05-23)"
   xmlns:inkscape="http://www.inkscape.org/namespaces/inkscape"
   xmlns:sodipodi="http://sodipodi.sourceforge.net/DTD/sodipodi-0.dtd"
   xmlns="http://www.w3.org/2000/svg"
   xmlns:svg="http://www.w3.org/2000/svg">
  <defs
     id="defs11" />
  <sodipodi:namedview
     id="namedview9"
     pagecolor="#ffffff"
     bordercolor="#cccccc"
     borderopacity="1"
     inkscape:pageshadow="0"
     inkscape:pageopacity="1"
     inkscape:pagecheckerboard="0"
     showgrid="false"
     inkscape:zoom="0.52"
     inkscape:cx="656.73077"
     inkscape:cy="425.96154"
     inkscape:window-width="1904"
     inkscape:window-height="1001"
     inkscape:window-x="0"
     inkscape:window-y="0"
     inkscape:window-maximized="0"
     inkscape:current-layer="svg"
     units="mm"
     inkscape:document-units="mm" />
  <path
     style="fill:#2b3590;stroke:none"
     d="m 198.49994,454.84614 h 875.99996 c 0,-53.527 -9.46,-108.152 -29.4,-158 -19.15,-47.886 -45.03,-93.53699 -79.76998,-131.99999 C 840.05992,26.158148 639.61994,-20.842856 466.49994,50.707045 c -46.603,19.2611 -88.327,47.6401 -126,80.853105 -44.004,38.796 -79.252,88.92899 -103.306,142.28599 -25.793,57.216 -38.694,118.337 -38.694,181 m 855.99996,-21 H 791.49992 c 7.984,-11.334 19.58,-21.2151 30,-30.2821 21.65,-18.8409 44.37,-36.7109 72,-45.7179 -12.74,-17.533 -23.97,-35.542 -38.29,-52 -24.52,-28.182 -55.94,-51.926 -88.71,-69.691 -17.85898,-9.682 -37.50198,-18.181 -56.99998,-23.885 -8.777,-2.567 -24.436,-3.332 -31.535,-9.01299 -5.695,-4.556 -9.71,-12.635 -14.119,-18.411 -9.816,-12.857 -19.74,-25.9271 -30.52,-38 -28.617,-32.051 -60.969,-58.467005 -91.826,-88.000005 12.593,51.118005 10.68,108.624005 1,159.999995 l -58,-49.33499 -61,-40.665 c 33.426,62.802 47.313,132.37499 34.576,202.99999 -4.292,23.798 -14.002,45.005 -20.576,68 h -23 v -3 l 16.991,-2.684 3.373,-5.218 -20.364,2.902 c -0.126,-10.632 -8.396,-11.201 -17,-14 l 2,12 -16.991,3.075 -3.137,6.17 7.129,-3.1051 13.999,-1.1399 v 4 c -3.826,1.985 -4.517,4.583 0,6 -2.226,9.037 -3.677,23.051 -13.04,27.972 -4.096,2.153 -10.47,1.028 -14.96,1.028 h -33 -121 c 6.438,-149.926 97.573,-283.25599 229,-352.601995 78.604,-41.473997 173.185,-52.619997 260,-38.151 40.384,6.731 80.54898,19.197 116.99998,38.012 97.92,50.543005 175.02,137.495995 209.32998,242.740995 7.22,22.148 13.27,45.895 16.39,69 1.8,13.346 1.19,28.011 4.28,41 m -367.99996,-220 c 53.118,32.516 78.84,86.682 74,148 h -1 c -8.504,-36.74 -30.326,-73.551 -48.85,-106 -5.422,-9.499 -10.659,-19.078 -17.009,-28 -2.742,-3.853 -7.602,-9.0991 -7.141,-14 m 196.99998,141 c -12.99,8.594 -27.11,14.724 -41,21.601 -9.003,4.458 -18.469,7.889 -28,11.066 -10.706,3.568 -28.5,11.327 -39.856,9.726 -4.502,-0.635 -7.805,-13.427 -6.166,-17.093 3.327,-7.438 16.178,-12.608 23.022,-16.052 20.608,-10.37 42.112,-14.3581 65,-14.247 7.97,0.038 20.32,0.359 27,4.999 m -143.99998,47 v 1 l -46,1.17 -22.582,-0.198 -13.418,-26.972 c 28.42,2.478 55.649,15.2939 82,25 m -250,-15 -10.326,13.972 -25.674,0.028 v -1 l 36,-13 m 154,17 v 1 l -153,-2 c 8.735,-7.211 22.281,-9.007 33,-11.626 40.977,-10.012 81.551,-2.291 120,12.626 m 178.99998,162 -26,-7 c -2.082,4.674 -3.478,9.9859 -7.329,13.606 -7.67,7.213 -20.901,4.986 -26.39898,-3.621 -5.521,-8.645 -5.812,-23.569 -2.059,-32.985 6.35598,-15.946 28.54598,-17.645 33.78698,0 l 27,-6 c -8.37,-30.592 -50.494,-39.491 -74.96098,-21.56 -14.656,10.741 -19.147,29.17 -17.95,46.56 1.066,15.474 8.027,31.133 21.911,39.12 26.17098,15.056 67.21598,4.273 71.99998,-28.12 m 254.99998,1 -27,-8 c -2.94,19.5729 -30.01,25.409 -35.49,4 -2.56,-10.034 -2.93,-24.471 3.88,-32.9851 9.19,-11.4809 26,-7.5679 30.61,5.9851 l 27,-6 c -8.99,-31.209 -52.63,-39.717 -76.98998,-20.471 -13.68,10.816 -17.05,30.0149 -15.92,46.471 0.86,12.4679 5.84,26.505 15.92,34.471 25.91998,20.475 70.31998,9.679 77.98998,-23.471 m -877.99996,-65 v 96 h 23 v -55 h 1 c 1.985,11.529 9.157,23.225 13.716,34 1.64,3.876 2.658,9.505 5.922,12.397 3.245,2.875 16.13,2.8099 19.972,1 3.983,-1.877 5.108,-8.7081 6.674,-12.397 4.621,-10.89 11.634,-22.287 13.716,-34 h 1 v 54 h 24 v -69 c 0,-5.846 2.684,-20.71 -1.028,-25.397 -2.776,-3.505 -25.885,-3.181 -28.898,0 -3.842,4.058 -5.881,12.28 -8.073,17.397 -5.637,13.154 -12.771,27.043 -16.001,41 l -18.011,-42 -8.379,-16.972 -28.61,-1.028 m 274,0 c 0,5.322 -2.362,18.117 1.028,22.397 3.76,4.747 24.131,1.603 29.972,1.603 v 72 h 30 v -72 h 30 v -24 h -91 m -189,267 v 2 c -5.497,2.37 -10.752,5.52 -16,8.41 -5.031,2.77 -13.428,3.74 -17.566,7.33 -6.07,5.26 0.412,13.35 6.566,14.13 15.571,1.96 42.224,-15.9 43.8,-31.87 1.828,-18.52 -36.23,-27.76 -43.352,-11.98 -7.267,16.09 19.91,9.84 26.552,11.98 m 205,2 c -5.565,2.4 -10.594,5.83 -16,8.56 -4.944,2.5 -12.589,3.65 -16.771,7.03 -6.182,4.99 -0.721,13.45 5.772,14.28 16.181,2.05 45.185,-17.12 43.774,-34.87 -1.246,-15.69 -25.79,-19.49 -37.77,-14.3 -5.306,2.3 -8.632,9.14 -4.487,14.07 6.917,8.23 18.816,-2.58 25.482,5.23 m 141,-20.53 c -15.522,2.93 -39.021,20.53 -33.347,38.53 4.209,13.35 30.25,15.21 41.332,11.36 5.768,-2 9.549,-9.77 5.412,-15.13 -5.785,-7.5 -21.69,3.5 -25.476,-3.66 -1.763,-3.34 3.834,-7 6.079,-8.44 5.658,-3.62 14.926,-3.84 19.566,-8.56 9.165,-9.32 -5.933,-15.54 -13.566,-14.1 m 199.99998,17.53 c -6.302,12.65 -25.361,10.32 -33.482,19.31 -6.234,6.91 2.845,13.76 9.482,13.63 16.77,-0.31 50.33,-21.87 38.86,-41.9 -5.71,-9.97 -30.083,-12.45 -38.712,-5.39 -6.321,5.18 -2.584,14.16 4.852,15.16 6.392,0.86 12.553,-1.73 19,-0.81 m -441.99998,-16.57 c -11.977,1.66 -23.511,8.75 -28.005,20.57 -6.861,18.04 10.826,30.03 27.005,27.7 10.204,-1.47 20.586,-7.9 24.522,-17.7 6.723,-16.74 -5.246,-33.11 -23.522,-30.57 m 344,0.01 c -12.189,1.9 -22.958,8.66 -27.532,20.56 -6.924,18.02 10.027,30.08 26.532,27.7 10.716,-1.54 20.329,-7.43 24.525,-17.7 6.787,-16.61 -5.189,-33.42 -23.525,-30.56 m 295.99996,-0.01 c -11.76,1.63 -22.91,8.22 -27.78,19.57 -7.93998,18.54 9.76,31.15 26.78,28.7 10.55,-1.52 20.95,-8.5 24.76,-18.7 6.15,-16.49 -6.04,-32.03 -23.76,-29.57 m 113.0001,3.27 c -9.37,3.11 -16.51,12.5 -25,17.42 -5.83,3.38 -15.09,4.99 -19.57,10.1 -6.2901,7.21 0.93,16.86 9.57,15.25 10.76,-2.02 20.05,-11.31 29,-17.03 5.24,-3.36 11.72,-6.44 15.57,-11.48 5.73,-7.51 -0.19,-17.37 -9.57,-14.26 m -752.00106,13.71 c 11.819,-2.08 4.3,13 -3.998,14.25 -13.218,1.98 -4.332,-12.79 3.998,-14.25 m 344,-0.01 c 12.463,-2.58 5.488,12.29 -2.999,14.05 -12.792,2.65 -5.635,-12.26 2.999,-14.05 m 296.00096,0.01 c 11.82,-2.08 4.3,13 -4,14.25 -13.5,2.01 -4.45,-12.77 4,-14.25 m -761.99996,71.59 v 2 c -13.499,3.9 -11.91,12.85 -4,22 -7.522,3.56 -14.207,9.08 -21,13.86 -6.924,4.86 -14.02,3.93 -20.981,7.46 -10.681,5.41 -4.774,19.44 5.981,19.22 15.03,-0.32 32.095,-16.16 44,-24.35 4.927,-3.39 10.839,-6.67 13.682,-12.19 2.935,-5.7 -0.011,-10.64 -3.682,-15 12.249,-6.25 20.884,-15.21 7,-25 5.015,-5.64 6.333,-18.08 -5,-16.73 -11.497,1.38 -35.328,20.37 -16,28.73 m 836.00006,1 c -6.98,2.92 -13.2101,7.31 -20.0001,10.63 -6.99,3.41 -17.08,1.79 -22.58,7.71 -9.23,9.94 4.77,19.67 14.58,17.24 15.95,-3.94 28.6501,-20.19 45.0001,-24 8.25,-1.93 15.92,9.29 24.89,4.24 7.66,-4.31 2.78,-12.81 -2.89,-15.82 v -2 c 6.16,-1.95 15.08,-6.07 19.2,-11.21 3.94,-4.93 2.33,-11.51 -4.2,-12.84 -11.17,-2.26 -22.23,9.89 -32,13.41 -2.21,0.8 -3.9,0.49 -6,-0.45 -5.98,-2.67 -26.3601,-5.99 -19.98,8.07 0.89,1.97 2.54,3.46 3.98,5.02 m -914.00006,-20.18 c -3.542,1.21 -7.043,4.57 -11,4.07 -6.832,-0.87 -10.565,-5.91 -17.996,-2.32 -8.727,4.23 -4.992,13.37 -11.066,19.13 -4.805,4.56 -12.586,10.52 -18.938,12.5 -5.384,1.68 -11.302,-0.26 -15.772,4.08 -5.98,5.8 -1.967,15.09 5.772,16.49 13.915,2.52 33.026,-14.02 43,-22.23 4.67,-3.85 8.569,-9.45 14.999,-10.22 6.711,-0.79 8.219,5.96 13.016,9.08 4.728,3.07 12.966,1.84 17.985,0.05 7.554,-2.69 17.16,-9.12 20.821,-16.45 2.875,-5.75 -0.002,-13.53 -6.822,-14.47 -8.341,-1.15 -10.822,12.79 -18.851,11.47 -6.873,-1.13 -3.121,-15.3 -15.148,-11.18 m 206,13.18 c -0.162,-2.03 -0.356,-4.01 -0.823,-6 -3.474,-14.81 -13.854,-3.18 -22.177,-3.15 -7.884,0.04 -12.702,-7.05 -20.945,-1.15 -5.886,4.21 -3.061,9.77 -6.083,15.01 -2.847,4.94 -10.379,8.66 -14.972,11.85 -7.566,5.26 -25.107,2.08 -25.677,14.44 -0.445,9.65 11.907,11.39 18.677,8.65 10.9,-4.42 21.871,-12.14 31,-19.46 5.215,-4.18 9.931,-11.02 16.996,-11.87 6.794,-0.81 8.057,6.59 13.175,9.36 6.407,3.47 15.774,0.82 21.829,-2.07 6.477,-3.09 14.237,-8.72 16.99,-15.61 2.267,-5.67 -1.087,-13.73 -7.99,-13.56 -6.42,0.16 -13.802,10.61 -20,13.56 m 66,9 c 3.422,-8.39 5.905,-30.76 -10.895,-21.68 -6.917,3.73 -4.868,12.5 -6.959,18.68 -1.792,5.29 -6.89,8.65 -8.489,14 -3.493,11.67 10.826,12.02 18.343,10.68 16.624,-2.96 35.005,-14.3 47.985,-24.7 5.645,-4.52 13.053,-16.59 1.011,-18.75 -9.028,-1.62 -13.769,6.35 -19.996,11.25 -6.174,4.86 -13.61,8 -21,10.52 m 279,-9 c -0.043,-2.02 -0.029,-4.04 -0.558,-6 -4.155,-15.46 -14.989,-1.89 -23.442,-2.9 -7.781,-0.93 -11.865,-6.95 -19.956,-1.25 -6.108,4.31 -3.727,9.66 -6.816,15.11 -2.772,4.89 -9.721,8.58 -14.228,11.74 -7.51,5.27 -23.767,1.83 -25.551,13.3 -1.489,9.58 10.618,12.44 17.551,10.03 11.536,-4.01 23.629,-12.81 33,-20.49 5.182,-4.26 8.816,-10.55 16,-11.23 7.142,-0.67 8.047,6.49 13.289,9.51 5.23,3.01 14.55,1.12 19.711,-1.17 7.126,-3.16 15.97598,-9.17 18.99098,-16.65 2.321,-5.76 -0.948,-13.73 -7.99198,-13.56 -6.542,0.16 -13.742,10.58 -19.999,13.56 m 203.99998,9 c -3.98,5.2 -32.59,22.55 -13.98,28.34 15.86,4.94 32.55,-18.42 35.31,-31.34 1.34,-6.3 1.91,-16.38 -5.35,-19.26 -9.21,-3.66 -16.37,4.68 -24.98,4.85 -9.27,0.17 -17.24,-9.87 -26.61,-1.03 -4.95,4.67 -2.64,9.93 -4.84,15.34 -1.39,3.4 -5.61,5.11 -8.55,6.91 -4.79,2.94 -9.52,6.98 -15,8.55 -4.92,1.42 -10.58,-0.6 -14.78,3.07 -4.76,4.18 -5.36,12.83 0,16.83 7.84,5.83 17.95,-1.46 24.78,-5 17.89,-9.28 33.4,-26.83 54,-27.26 m 89.99998,-1 c -2.35,9.39 -11.23,12.81 -14.25,21 -2.09,5.66 2.6,11.34 8.25,11.85 16.86,1.51 23.3,-25.63 22.99,-37.85 -0.18,-6.62 -2.62,-14.45 -9.99,-16.03 -6.53,-1.39 -13.06,3.31 -18,6.92 -9.35,6.83 -19.27,15.11 -29.99998,19.65 -6.62,2.79 -15.62,3.47 -19.31,10.5 -4.55,8.66 2.64,15.67 11.31,14.85 8.43,-0.79 17.23998,-8.91 23.99998,-13.61 8.34,-5.8 16.09,-12.34 25,-17.28 m -400.99996,-20.48 c -8.754,1.85 -25.25,9.51 -26.756,19.48 -0.791,5.24 7.981,12.51 4.329,16.3 -8.016,8.32 -20.735,-4.09 -29.518,1.56 -6.754,4.34 -5.765,13.18 0.96,16.86 6.814,3.73 18.527,3.13 25.985,1.82 9.353,-1.66 24.604,-8.25 24.802,-19.54 0.072,-4.15 -4.513,-9 -3.356,-12.79 1.639,-5.36 12.493,-4.99 16.326,-8.6 9.852,-9.31 -3.931,-16.97 -12.772,-15.09 m 160.99998,35.48 c 12.736,-5.76 24.443,11.79 40,8.62 19.37,-3.94 27.22,-32.89 8,-42.62 -16.648,-8.42 -37.034,8.32 -50,17 -4.614,3.09 -9.964,6.06 -13.811,10.1 -3.454,3.63 -6.135,9.01 -3.165,13.73 1.828,2.9 8.75,6.79 6.224,10.87 -1.249,2.01 -4.07,2.57 -6.248,2.53 -6.591,-0.12 -30.00998,-2.89 -19.25798,12.66 4.827,6.98 17.04298,5.74 24.25798,4.3 20.26,-4.02 28.452,-21.35 14,-37.19 m 25,-12 c 2.223,-4.28 10.989,-9.57 15.214,-4.47 4.796,5.78 -5.577,7.75 -9.209,6.94 -2.186,-0.48 -4.043,-1.44 -6.005,-2.47 m -646.99998,48.59 c -9.555,2.44 -18.302,14.17 -27,19.18 -5.542,3.19 -14.304,4.84 -18.682,9.51 -5.653,6.02 -0.229,15.93 7.682,15.3 14.282,-1.14 38.243,-17.42 46.566,-28.59 4.874,-6.55 0.647,-17.75 -8.566,-15.4 m 749.99998,0.14 c -9.68,3.32 -17.19,13.6 -26,18.82 -5.85,3.46 -14.82,4.93 -19.57,9.87 -6.63,6.91 1.52,16.31 9.57,14.86 14.06,-2.54 36.94,-16.96 45.35,-28.37 4.97,-6.75 -0.17,-18.33 -9.35,-15.18 z"
     id="path888" />
</svg>
