<?xml version="1.0" encoding="UTF-8" standalone="no"?>
<!-- Created with Inkscape (http://www.inkscape.org/) -->

<svg
   width="353mm"
   height="500mm"
   viewBox="0 0 353 500"
   version="1.1"
   id="svg890"
   inkscape:version="1.1 (c68e22c387, 2021-05-23)"
   sodipodi:docname="SuvadiveMap.svg"
   xmlns:inkscape="http://www.inkscape.org/namespaces/inkscape"
   xmlns:sodipodi="http://sodipodi.sourceforge.net/DTD/sodipodi-0.dtd"
   xmlns="http://www.w3.org/2000/svg"
   xmlns:svg="http://www.w3.org/2000/svg"
   xmlns:rdf="http://www.w3.org/1999/02/22-rdf-syntax-ns#"
   xmlns:cc="http://creativecommons.org/ns#"
   xmlns:dc="http://purl.org/dc/elements/1.1/">
  <defs
     id="defs884" />
  <sodipodi:namedview
     id="base"
     pagecolor="#ffffff"
     bordercolor="#666666"
     borderopacity="1.0"
     inkscape:pageopacity="0.0"
     inkscape:pageshadow="2"
     inkscape:zoom="0.175"
     inkscape:cx="-745.71429"
     inkscape:cy="431.42857"
     inkscape:document-units="mm"
     inkscape:current-layer="layer1"
     showgrid="false"
     inkscape:window-width="1920"
     inkscape:window-height="1017"
     inkscape:window-x="-8"
     inkscape:window-y="-8"
     inkscape:window-maximized="1"
     inkscape:pagecheckerboard="0" />
  <metadata
     id="metadata887">
    <rdf:RDF>
      <cc:Work
         rdf:about="">
        <dc:format>image/svg+xml</dc:format>
        <dc:type
           rdf:resource="http://purl.org/dc/dcmitype/StillImage" />
      </cc:Work>
    </rdf:RDF>
  </metadata>
  <g
     inkscape:label="Layer 1"
     inkscape:groupmode="layer"
     id="layer1">
    <g
       id="g870"
       transform="matrix(4.5194991,0,0,4.5194991,-1061.6064,-1510.2414)"
       style="stroke-width:0.736336;stroke-miterlimit:4;stroke-dasharray:none;stroke:#00ffff;stroke-opacity:1">
      <path
         style="fill:none;stroke:#00ffff;stroke-width:0.736336;stroke-linecap:butt;stroke-linejoin:miter;stroke-miterlimit:4;stroke-dasharray:none;stroke-opacity:1"
         d="m 268.09831,346.25859 -2.64306,-3.43598 c -0.71333,-0.8658 -0.63503,-1.68212 -0.53357,-2.49699 -0.008,-0.40099 0.14086,-0.62407 0.37726,-0.89543 1.23377,-1.3836 2.1766,-1.7949 3.189,-2.43872 0.35939,-0.32697 0.67845,-0.29062 1.10588,-0.24502 3.26798,0.36076 4.44866,0.88294 6.24285,0.64844 1.88274,-0.14676 1.82501,0.27238 2.70554,1.71388 1.59213,2.60674 3.61483,5.98125 3.82747,9.1 0,0 -1.16318,4.89747 0.66146,6.99257 2.12443,2.43931 4.09973,3.44797 5.48066,6.42559 l 1.28009,2.76019 c 0.84917,2.2938 2.24332,2.82319 1.17351,4.89215 -0.30979,0.59906 -0.61895,1.19844 -0.87508,1.82433 -0.94982,2.80329 -4.85615,5.08913 -7.3511,7.33272 -1.05557,0.94922 -2.0023,0.9316 -3.20668,1.01779 -1.64043,0.1174 -3.24571,0.4115 -4.80036,0.9586 -0.93897,0.26754 -1.41961,0.568 -2.02038,1.30228 l -0.4726,0.57762 c -0.40729,0.66567 -0.72826,0.80541 -1.43809,0.97749 l -1.07906,0.2616 -1.24299,0.30133 -4.13058,0.33044 c -0.46952,0.10942 -0.80289,-0.0265 -1.2391,-0.18133 l -1.85741,-0.65908 c -0.44676,-0.0925 -0.70893,-0.40876 -1.03467,-0.70592 l -4.29754,-3.92056 c -0.45679,-0.30506 -0.58311,-0.68963 -0.7819,-1.17756 l -2.53507,-6.22244 c -0.26177,-0.46951 -0.31653,-0.95349 -0.3851,-1.47461 l -0.28251,-2.14714 c -0.15916,-0.66714 -0.24598,-1.60262 -0.15301,-2.2689 l 0.25006,-1.7921 c -0.003,-0.65403 0.19898,-1.0481 0.54386,-1.56576 l 0.62566,-1.23278 c 0.19166,-0.64151 0.71791,-0.9087 1.18637,-1.22512 1.9648,-1.32822 3.52482,-2.58014 4.84333,-3.91577 0.23981,-0.30906 0.49534,-0.44367 0.84691,-0.61945 l 2.8531,-1.42655 c 0.48565,-0.16737 0.80414,-0.47867 1.1663,-0.82272 l 2.87771,-2.73383 c 0.37194,-0.25797 0.42854,-0.55137 0.55035,-0.96551 l 0.58412,-1.98601 c 0.14345,-0.39144 0.23,-0.54762 -0.0116,-0.86174 z"
         id="path840-4"
         inkscape:connector-curvature="0"
         sodipodi:nodetypes="ccccccccssccccssccccccccccccccccccccccccccccc" />
      <path
         style="fill:none;stroke:#00ffff;stroke-width:0.736336;stroke-linecap:butt;stroke-linejoin:miter;stroke-miterlimit:4;stroke-dasharray:none;stroke-opacity:1"
         d="m 278.59997,413.61336 c 0.32295,-0.54295 0.97999,-0.66166 1.30294,-0.65148 1.26181,0.66164 1.82874,1.83332 2.13815,2.87316 0.39692,2.4656 -0.2852,3.9179 -0.65146,5.11154 -0.47179,-0.28808 -0.88556,-1.1719 -1.00227,-1.77066 -0.51158,-1.5173 -0.33771,-0.84092 -1.78736,-5.56256 z"
         id="path842-7"
         inkscape:connector-curvature="0"
         sodipodi:nodetypes="cccccc" />
      <path
         style="fill:none;stroke:#00ffff;stroke-width:0.736336;stroke-linecap:butt;stroke-linejoin:miter;stroke-miterlimit:4;stroke-dasharray:none;stroke-opacity:1"
         d="m 257.9209,434.76905 0.61296,-0.0128 c 0.44908,-0.0796 0.61094,0.0378 0.87975,0.31226 1.91906,1.82665 4.00175,0.25351 6.05428,-0.70471 0.34231,-0.20436 0.64888,-0.24886 1.0056,-0.24961 0.95362,-0.0221 2.02615,-0.21078 2.50746,0.42831 0.0761,0.10098 0.13734,0.22263 0.18106,0.36887 -0.45207,-0.18662 -0.90439,-0.37522 -1.26953,0.13362 0.23273,1.19157 0.80163,2.38315 0.0334,3.57472 -0.61727,1.34307 -1.37398,2.22133 -2.20783,2.84246 -0.35672,0.17666 -0.46211,0.54682 -0.66467,0.84273 -0.32733,0.39199 -0.73365,0.46799 -1.10313,0.69135 -0.75066,0.35177 -1.41808,0.37052 -2.03315,0.17992 -0.29825,-0.0599 -0.3856,-0.22997 -0.55538,-0.47756 l -0.3743,-0.54586 c -0.12111,-0.26722 -0.38081,-0.35448 -0.59798,-0.47182 -1.11678,-0.65987 -1.77498,-1.84385 -2.51694,-2.9321 -0.29911,-0.32826 -0.30591,-0.56738 -0.31422,-1.00772 l -0.0406,-2.14988 c -9e-4,-0.58452 -0.20138,-0.80959 0.40318,-0.8222 z"
         id="path844-8"
         inkscape:connector-curvature="0"
         sodipodi:nodetypes="cccccsccccccccccccccc" />
    </g>
  </g>
</svg>
